<svg xmlns="http://www.w3.org/2000/svg" viewBox="0 0 200 200" fill="none"><circle cx="100" cy="100" r="14" fill="#111"/><path d="M100 28c18 10 26 24 26 40s-10 28-26 38c-16-10-26-22-26-38s8-30 26-40Z" fill="#111"/><path d="M172 100c-10 18-24 26-40 26s-28-10-38-26c10-16 22-26 38-26s30 8 40 26Z" fill="#111"/><path d="M100 172c-18-10-26-24-26-40s10-28 26-38c16 10 26 22 26 38s-8 30-26 40Z" fill="#111"/><path d="M28 100c10-18 24-26 40-26s28 10 38 26c-10 16-22 26-38 26s-30-8-40-26Z" fill="#111"/></svg>